<svg id="SvgjsSvg1018" width="288" height="288" xmlns="http://www.w3.org/2000/svg" version="1.1" xmlns:xlink="http://www.w3.org/1999/xlink" xmlns:svgjs="http://svgjs.com/svgjs"><defs id="SvgjsDefs1019"></defs><g id="SvgjsG1020"><svg xmlns="http://www.w3.org/2000/svg" viewBox="0 0 64 64" width="288" height="288"><path fill="#ffd615" d="M4.3254 27.03836c5 0 5 6 5 6 0 0 0-6 5-6-5 0-5-6-5-6 0 0 0 6-5 6zM37.3254 52.03836c5 0 5 6 5 6 0 0 0-6 5-6-5 0-5-6-5-6 0 0 0 6-5 6zM20.99961 55.93094l8.80105 3.12966c1.32402.47082 2.70797-.53468 2.66934-1.93939l-.25681-9.33741 5.69616-7.40318c.85693-1.11373.3283-2.74066-1.0196-3.138l-8.95977-2.64118-5.28063-7.70508c-.79441-1.15914-2.50507-1.15914-3.29948 0l-5.28063 7.70508-8.95977 2.64118c-1.3479.39734-1.87652 2.02427-1.0196 3.138l5.69616 7.40318-.25681 9.33741c-.03863 1.40471 1.34532 2.41021 2.66934 1.93939l8.80105-3.12966z" class="color4aa5ff svgShape"></path><path fill="#1e2a78" d="M30.47091,60.17605c-.20756,.28421-9.00161-3.08-9.47168-3.18359l-8.46582,3.01074c-.93262,.33008-1.96875,.18164-2.76855-.40039-.80078-.58203-1.2627-1.51953-1.23535-2.50879l.24707-8.98242-5.47949-7.12207c-.60352-.7832-.78125-1.81348-.47559-2.75488s1.05566-1.6709,2.00488-1.95117l8.61914-2.54004,5.0791-7.41211c.56055-.81641,1.48535-1.30371,2.47559-1.30371,.98926,0,1.91406,.4873,2.47461,1.30371l5.0791,7.41211,8.61816,2.54004c.9502,.28027,1.69922,1.00879,2.00488,1.9502s.12891,1.97168-.47461,2.75586l-5.47949,7.12207,.24707,8.98242c.08296,1.64047-1.36663,3.11864-2.99902,3.08203Zm-9.47168-5.24512c.11328,0,.22656,.01953,.33496,.05762l8.80176,3.12988c.63244,.24938,1.37636-.2884,1.33397-.96975,.00002,.00002-.25682-9.33787-.25682-9.33787-.00586-.22949,.06738-.45508,.20703-.63672l5.69629-7.40332c.43086-.52744,.1515-1.397-.50979-1.56933,.00002,0-8.95896-2.64063-8.95896-2.64063-.2207-.06445-.41309-.2041-.54297-.39355l-5.28027-7.70508c-.37988-.55371-1.27148-.55176-1.64941,0l-5.28027,7.70508c-.12988,.18945-.32227,.3291-.54297,.39355l-8.95996,2.64062c-.65671,.17238-.94388,1.04141-.50974,1.56837-.00002,0,5.69724,7.40429,5.69724,7.40429,.13965,.18164,.21289,.40723,.20703,.63672l-.25684,9.33789c-.04032,.67958,.69885,1.22036,1.334,.96971-.00001,.00002,8.80077-3.12986,8.80077-3.12986,.1084-.03809,.22168-.05762,.33496-.05762Z" class="color21257c svgShape"></path><path fill="#f9ff21" d="M31.6512,22.33675l5.34742,1.90155c.66201,.23541,1.35399-.26734,1.33467-.96969l-.15604-5.67331,3.46092-4.49809c.42846-.55686,.16415-1.37033-.5098-1.569l-5.44385-1.60475-3.20845-4.68152c-.39721-.57957-1.25254-.57957-1.64974,0l-3.20845,4.68152-5.44385,1.60475c-.67395,.19867-.93826,1.01213-.5098,1.569l3.46092,4.49809-.15604,5.67331c-.01932,.70236,.67266,1.20511,1.33467,.96969l5.34742-1.90155Z" class="colore6f3ff svgShape"></path><path fill="#1e2a78" d="M37.33322,25.29617c-.2625,.14651-5.30166-1.80573-5.68164-1.89746l-5.0127,1.78223c-.61914,.2207-1.31152,.12207-1.84668-.2666-.5332-.38867-.84082-1.01367-.82324-1.67285l.14648-5.31836-3.24414-4.2168c-.40234-.52246-.52051-1.20898-.31641-1.83691s.70312-1.11426,1.33691-1.2998l5.10156-1.50488,3.00781-4.38867c.37402-.54395,.99023-.86914,1.65039-.86914,.66048,.00064,1.27717,.32493,1.64941,.87012l3.00781,4.3877,5.10254,1.50488c.63281,.18555,1.13184,.67188,1.33594,1.2998s.08594,1.31445-.31738,1.83789l-3.24316,4.21582,.14648,5.31836c.0541,1.0937-.91053,2.08-2,2.05469Zm-5.68164-3.95898c.11328,0,.22656,.01953,.33496,.05762l5.34668,1.90137-.15625-5.67383c-.00586-.22949,.06738-.45508,.20703-.63672l3.46094-4.49805-5.44336-1.60547c-.2207-.06445-.41211-.2041-.54199-.39355l-3.20898-4.68164-3.20801,4.68164c-.12988,.18945-.32129,.3291-.54199,.39355l-5.44336,1.60547,3.46094,4.49805c.13965,.18164,.21289,.40723,.20703,.63672l-.15625,5.67383,5.34766-1.90137c.1084-.03809,.22168-.05762,.33496-.05762Z" class="color21257c svgShape"></path><path fill="#f9ff21" d="M49.79935,40.77981l5.34742,1.90155c.66201,.23541,1.35399-.26734,1.33467-.96969l-.15604-5.67331,3.46092-4.49809c.42846-.55686,.16415-1.37033-.5098-1.569l-5.44385-1.60475-3.20845-4.68152c-.39721-.57957-1.25254-.57957-1.64974,0l-3.20845,4.68152-5.44385,1.60475c-.67395,.19867-.93826,1.01213-.5098,1.569l3.46092,4.49809-.15604,5.67331c-.01932,.70236,.67266,1.20511,1.33467,.96969l5.34742-1.90155Z" class="colore6f3ff svgShape"></path><path fill="#1e2a78" d="M55.48263,43.73855c-.26428,.1464-5.30236-1.80536-5.68359-1.89746l-5.01172,1.78223c-.62207,.2207-1.3125,.12207-1.84668-.2666-.5332-.3877-.84082-1.01367-.82324-1.67285l.14648-5.31738-3.24414-4.2168c-.40137-.52148-.52051-1.20801-.31738-1.83594,.2041-.62793,.70312-1.11426,1.33691-1.30176l5.10254-1.50391,3.00781-4.38867c.37207-.54395,.98828-.86816,1.64844-.86914,.66048-.00033,1.27717,.32492,1.65039,.86914l3.00781,4.38867,5.10254,1.50391c.63477,.1875,1.13379,.67383,1.33789,1.30176,.20312,.62793,.08398,1.31445-.31836,1.83691l-3.24316,4.21582,.14648,5.31738c.05437,1.09386-.9105,2.07966-1.99902,2.05469Zm-5.68359-19.48828l-3.20801,4.68164c-.13086,.18945-.32227,.3291-.54199,.39355l-5.44336,1.60449,3.46094,4.49902c.13965,.18164,.21289,.40723,.20703,.63672l-.15625,5.67285,5.34668-1.90137c.2168-.07617,.45312-.07617,.66992,0l5.34766,1.90137-.15625-5.67285c-.00586-.22949,.06738-.45508,.20703-.63672l3.46094-4.49805-5.44336-1.60547c-.2207-.06445-.41309-.2041-.54297-.39355l-3.20801-4.68164Z" class="color21257c svgShape"></path><path fill="#ffd615" d="M53.98747,17.81972l3.32433,1.18214c.41155,.14635,.84173-.1662,.82972-.60283l-.097-3.52693,2.15155-2.79633c.26636-.34619,.10205-.85189-.31693-.9754l-3.38428-.99763-1.9946-2.91036c-.24693-.3603-.77866-.3603-1.0256,0l-1.9946,2.91036-3.38428,.99763c-.41897,.12351-.58329,.62921-.31693,.9754l2.15155,2.79633-.097,3.52693c-.01201,.43663,.41817,.74918,.82972,.60283l3.32433-1.18214Z" class="color4aa5ff svgShape"></path><path fill="#1e2a78" d="M57.51974,20.03738c-.33901,.07542-3.1593-1.059-3.53223-1.15625l-2.98926,1.06348c-.50488,.17773-1.06543,.09668-1.49805-.21777-.43164-.31445-.68066-.82031-.66699-1.35449l.08789-3.17188-1.93555-2.51465c-.32617-.42578-.42188-.98242-.25586-1.49121s.57129-.90234,1.08398-1.05273l3.04199-.89746,1.79395-2.61719c.60547-.88281,2.07031-.88281,2.67578,0l1.79395,2.61719,3.04297,.89746c.51172,.15039,.91699,.54395,1.08301,1.05273s.07031,1.06543-.25586,1.49023l-1.93555,2.51562,.08789,3.1709c.04338,.88815-.73967,1.686-1.62207,1.66602Zm-8.61133-8.13379l1.81543,2.3584c.13965,.18262,.21289,.4082,.20703,.6377l-.08301,2.97559,2.80469-.99805c.2168-.07617,.45312-.07617,.66992,0l2.80469,.99805-.08301-2.97559c-.00586-.22949,.06738-.45508,.20703-.6377l1.81543-2.3584-2.85449-.8418c-.21973-.06445-.41113-.2041-.54199-.39355l-1.68262-2.45508-1.68262,2.45508c-.13086,.18945-.32227,.3291-.54199,.39355l-2.85449,.8418Z" class="color21257c svgShape"></path></svg></g></svg>